#!OML:ASF H:\ColoradoDance\Project 1\Capture day 1\Session 8\male.ASF
:FULLY-SPECIFIED
:DEGREES
33
upperback 7.041800 -0.743984 -5.858470
rfoot 172.569000 172.289993
lradius 59.667301
lthumb 25.318800 9.470540
rradius 22.384199
lwrist 46.572300
rhand -24.845200 -49.134602
rhumerus -49.430401 -30.775101 1.990510
lowerneck -5.749220 8.171500 10.411300
lhand -0.283546 -18.868999
ltibia 56.429501
head 8.759460 5.215190 -2.349040
rwrist 13.125700
lfingers 7.125020
rtoes -27.874500
lowerback 8.502100 -0.325494 -4.053030
rfingers 7.125020
lclavicle -0.000000 -0.000000
upperneck 22.393200 10.520800 -4.833000
rfemur -32.321499 -1.253130 41.787201
thorax 2.539540 -0.445817 -3.777410
rclavicle -0.000000 -0.000000
rtibia 40.506199
lfoot -7.356390 22.943600
lhumerus 21.497499 -26.845699 31.992399
rthumb 1.661070 -79.107903
root 18.912901 19.327000 18.794901 35.996799 -31.522100 -15.291300
ltoes -8.067200
lfemur -51.145199 13.633100 -9.347210
34
upperback 5.568400 -0.194491 -5.349680
rfoot 145.391998 169.018997
lradius 67.125198
lthumb 26.422800 9.888800
rradius 25.257900
lwrist 48.008701
rhand -35.508099 -45.653599
rhumerus -46.093102 -24.208900 -1.653690
lowerneck -3.947070 8.387610 10.374200
lhand 0.869348 -18.289600
ltibia 59.534401
head 6.427380 5.483290 -2.853810
rwrist -4.439290
lfingers 7.125020
rtoes -15.076700
lowerback 9.087630 0.104227 -2.566170
rfingers 7.125020
lclavicle 0.000000 0.000000
upperneck 15.929500 11.127900 -6.228980
rfemur -22.895800 -4.066480 48.831200
thorax 0.680302 -0.124779 -4.094780
rclavicle 0.000000 0.000000
rtibia 41.762299
lfoot -5.601690 23.610100
lhumerus 20.087200 -25.844700 31.545200
rthumb -8.635080 -75.457001
root 17.262300 17.272600 19.480200 37.322601 -32.624699 -18.694599
ltoes 6.469090
lfemur -83.121300 17.508499 -23.348600
35
upperback 4.674850 -1.937980 -8.552820
rfoot 156.970993 184.639999
lradius 67.472801
lthumb 25.806700 7.769150
rradius 19.982800
lwrist 45.280899
rhand -47.492100 -13.914700
rhumerus -62.049099 -26.983299 0.169068
lowerneck -4.871870 8.530530 8.775980
lhand 0.225875 -20.500299
ltibia 69.850304
head 4.786760 5.524400 -1.476010
rwrist 11.760200
lfingers 7.125020
rtoes -32.961102
lowerback 10.708700 -0.639418 -8.387160
rfingers 7.125020
lclavicle 0.000000 0.000000
upperneck 11.228600 10.859300 -2.374360
rfemur -24.627701 -13.769900 49.248501
thorax -1.117270 -1.015550 -4.041740
rclavicle 0.000000 0.000000
rtibia 64.298897
lfoot -18.824499 28.648199
lhumerus 26.414700 -31.242300 31.615499
rthumb -20.180300 -42.886501
root 13.812100 15.547000 21.472700 31.096100 -19.703699 -9.126210
ltoes 17.920700
lfemur -91.292297 11.433500 -39.840099
36
upperback 5.515440 -2.663150 -6.587680
rfoot 171.772995 166.473999
lradius 55.660801
lthumb 20.770901 7.773820
rradius 17.120701
lwrist 40.303299
rhand -42.639099 5.411770
rhumerus -60.516998 -29.546600 -11.811800
lowerneck -4.708560 10.406700 11.943500
lhand -5.023430 -21.134501
ltibia 74.279602
head 4.177290 6.726970 -5.196100
rwrist 16.864700
lfingers 7.125020
rtoes -36.743698
lowerback 10.297100 -1.587850 -5.848530
rfingers 7.125020
lclavicle 0.000000 0.000000
upperneck 5.309400 14.026600 -13.616100
rfemur -50.391800 2.105960 23.692900
thorax -0.052284 -1.342530 -3.307430
rclavicle 0.000000 0.000000
rtibia 98.331200
lfoot -18.222700 17.570900
lhumerus 18.667200 -26.485600 37.386799
rthumb -15.510700 -23.986099
root 9.998660 16.090300 23.149700 26.806999 -0.063251 -4.232890
ltoes 3.868620
lfemur -81.395401 9.417370 -27.360901
37
upperback 4.191030 -3.932020 -3.432980
rfoot 159.108002 195.207993
lradius 51.061401
lthumb -1.744110 24.890800
rradius 15.094000
lwrist 26.079500
rhand -33.370602 -8.662000
rhumerus -61.444500 -17.567499 -47.426102
lowerneck -0.054632 9.538100 12.089700
lhand -28.370899 -5.081800
ltibia 39.057598
head 3.580290 6.586810 -4.792010
rwrist 23.985500
lfingers 7.125020
rtoes -15.647800
lowerback 8.330060 -3.043800 0.771877
rfingers 7.125020
lclavicle -0.000000 0.000000
upperneck 6.750120 13.276700 -11.274500
rfemur -31.762400 25.205400 8.629640
thorax -0.616853 -1.886550 -3.631490
rclavicle -0.000000 0.000000
rtibia 58.131302
lfoot 7.516800 -0.428633
lhumerus 2.095900 -17.659300 43.455898
rthumb -6.571950 -38.540001
root 5.190840 18.258301 24.424999 18.852100 48.991100 -0.469277
ltoes 0.551056
lfemur -59.264999 -4.121440 -14.793800
38
upperback 1.775580 1.613760 -0.262098
rfoot 149.356995 160.332001
lradius 49.455502
lthumb -10.060800 36.206100
rradius 28.968500
lwrist 12.044200
rhand -10.212500 -7.628290
rhumerus -68.052299 -6.573970 -92.781197
lowerneck -1.134260 13.149400 17.211500
lhand -36.985699 6.466630
ltibia 49.285801
head 5.625360 9.193120 -6.006020
rwrist 16.573999
lfingers 7.125020
rtoes -1.046030
lowerback 2.630660 1.122100 4.416330
rfingers 7.125020
lclavicle -0.000000 0.000000
upperneck 8.008630 18.588200 -15.012100
rfemur -22.498899 -0.480281 27.073200
thorax 0.479682 0.859880 -2.777520
rclavicle -0.000000 0.000000
rtibia 40.747200
lfoot -20.847000 6.527640
lhumerus -1.697850 -20.899099 62.747101
rthumb 15.779000 -37.005199
root 1.450180 18.777700 25.015499 7.753040 118.761002 -6.567320
ltoes 43.379200
lfemur -43.247200 -7.468170 -14.427000
39
upperback 0.622893 -1.551940 2.058750
rfoot 152.356995 165.315002
lradius 48.043800
lthumb -7.175180 83.837502
rradius 40.961498
lwrist 15.643700
rhand 3.792520 13.050400
rhumerus -84.454002 6.976670 -104.306000
lowerneck 2.073830 14.701300 14.367000
lhand -33.995499 53.979198
ltibia 39.992401
head 3.667830 10.203800 -4.786130
rwrist 14.702600
lfingers 7.125020
rtoes 2.625460
lowerback 1.171130 -1.127190 7.842800
rfingers 7.125020
lclavicle 0.000000 0.000000
upperneck 4.473100 20.375900 -11.767500
rfemur -21.101400 8.593830 27.370199
thorax -0.156189 -0.820604 -2.244850
rclavicle 0.000000 0.000000
rtibia 43.818401
lfoot -33.411800 44.722900
lhumerus -26.530100 -32.205399 81.660896
rthumb 29.217600 -14.675800
root -1.197560 18.720600 23.985399 4.139780 187.931000 -0.833333
ltoes 55.803799
lfemur -36.506699 -6.772980 -8.853030
40
upperback -0.989905 -1.885150 7.078940
rfoot 154.451996 152.009003
lradius 65.417603
lthumb 15.303400 64.841202
rradius 41.786499
lwrist 16.546700
rhand 35.189999 30.945700
rhumerus -90.719002 18.615900 -102.741997
lowerneck -0.707591 3.432940 6.620200
lhand -10.706400 35.427399
ltibia 43.734901
head 2.288170 2.285400 -3.961790
rwrist 23.848801
lfingers 7.125020
rtoes -18.067200
lowerback 1.951760 -1.478620 18.574400
rfingers 7.125020
lclavicle -0.000000 -0.000000
upperneck 5.987220 4.877180 -9.952320
rfemur -0.952560 -14.094200 37.522800
thorax -2.466070 -1.402720 -2.684760
rclavicle -0.000000 -0.000000
rtibia 43.436699
lfoot -27.879101 28.092600
lhumerus -59.499001 -44.696201 98.582397
rthumb 58.302502 15.498900
root -4.412720 18.591900 22.477900 -35.308701 243.195999 34.850300
ltoes 9.704930
lfemur -31.315599 0.622317 -6.484860
41
upperback -4.023710 0.490139 4.191170
rfoot 165.074997 159.313995
lradius 49.887600
lthumb 23.438900 53.253201
rradius 46.490398
lwrist 22.590799
rhand 44.388199 33.266998
rhumerus -61.314800 53.456001 -85.939499
lowerneck -2.440770 -5.014110 -0.548877
lhand -2.244430 24.660801
ltibia 38.646900
head 2.499050 -3.488360 -3.241480
rwrist 7.802370
lfingers 7.125020
rtoes -13.889600
lowerback 2.792310 0.088749 5.067780
rfingers 7.125020
lclavicle 0.000000 0.000000
upperneck 7.400070 -6.222310 -9.660890
rfemur -18.171200 -23.187599 18.083599
thorax -5.754150 0.072267 1.494420
rclavicle 0.000000 0.000000
rtibia 62.442799
lfoot -13.515600 12.420100
lhumerus -36.178799 -33.292500 47.440800
rthumb 65.917297 27.695200
root -7.307020 18.910200 21.727400 -163.983002 260.817993 164.177002
ltoes 11.054800
lfemur -23.379200 -2.832150 -25.502600
42
upperback -1.528030 2.303450 1.820820
rfoot 181.513000 153.292999
lradius 30.521900
lthumb 22.998600 54.534599
rradius 69.247498
lwrist 15.405000
rhand 14.238500 15.890100
rhumerus 6.377390 45.657398 -36.409199
lowerneck -4.574250 -6.948150 -2.993320
lhand -2.703410 25.886700
ltibia 35.491699
head 2.945280 -4.640320 -1.247950
rwrist -41.665798
lfingers 7.125020
rtoes 0.751455
lowerback 2.821780 1.588010 3.695960
rfingers 7.125020
lclavicle 0.000000 0.000000
upperneck 6.938020 -8.825410 -4.373460
rfemur -42.271999 -28.722700 18.437000
thorax -3.085610 1.080510 -0.319121
rclavicle 0.000000 0.000000
rtibia 49.217800
lfoot -20.938999 23.722300
lhumerus -13.620800 14.558800 13.917100
rthumb 39.134399 -9.591330
root -10.049700 19.142200 20.688900 -174.852997 255.044006 174.658005
ltoes 10.812400
lfemur -11.714500 -18.375999 -24.087200
